<svg width="105" height="23" viewBox="0 0 105 23" fill="none" xmlns="http://www.w3.org/2000/svg">
<path d="M65.9875 2.8604V6.03748H63.9992V8.121H65.9875V15.2004C65.9875 17.6177 67.0793 18.5846 69.8262 18.5846C70.3089 18.5846 70.7686 18.5271 71.1709 18.458V16.3975C70.8261 16.4321 70.6077 16.4551 70.2284 16.4551C68.9987 16.4551 68.4585 15.8795 68.4585 14.5672V8.121H71.1709V6.03748H68.4585V2.8604H65.9875Z" fill="#282224"/>
<path d="M78.1683 18.7573C81.8231 18.7573 84.0643 16.3054 84.0643 12.242C84.0643 8.20158 81.8116 5.73819 78.1683 5.73819C74.5135 5.73819 72.2609 8.20158 72.2609 12.242C72.2609 16.3054 74.502 18.7573 78.1683 18.7573ZM78.1683 16.5587C76.0191 16.5587 74.8123 14.9817 74.8123 12.242C74.8123 9.52536 76.0191 7.93682 78.1683 7.93682C80.306 7.93682 81.5243 9.52536 81.5243 12.242C81.5243 14.9701 80.306 16.5587 78.1683 16.5587Z" fill="#282224"/>
<path d="M85.9818 18.5156H88.4528V11.1139C88.4528 9.35269 89.7745 8.16705 91.6479 8.16705C92.0846 8.16705 92.8202 8.24762 93.0271 8.31669V5.87632C92.7627 5.80726 92.2915 5.77272 91.9237 5.77272C90.2917 5.77272 88.9011 6.67059 88.5448 7.90229H88.3609V5.97993H85.9818V18.5156Z" fill="#282224"/>
<path d="M99.1626 7.84473C100.99 7.84473 102.185 9.12247 102.243 11.0909H95.9215C96.0594 9.13398 97.3352 7.84473 99.1626 7.84473ZM102.231 15.1313C101.771 16.1097 100.749 16.6508 99.2545 16.6508C97.2777 16.6508 96.002 15.2579 95.9215 13.0593V12.9212H104.76V12.0578C104.76 8.121 102.656 5.73819 99.1741 5.73819C95.6457 5.73819 93.4045 8.28216 93.4045 12.288C93.4045 16.2939 95.5997 18.7573 99.1855 18.7573C102.047 18.7573 104.047 17.376 104.61 15.1313H102.231Z" fill="#282224"/>
<path d="M49.7829 13.8864C49.9735 16.9645 52.5346 18.9332 56.3466 18.9332C60.4206 18.9332 62.9698 16.8691 62.9698 13.5762C62.9698 10.9871 61.5165 9.55541 57.9905 8.73217L56.0964 8.26687C53.8569 7.7419 52.9516 7.03798 52.9516 5.80909C52.9516 4.25806 54.3572 3.24393 56.4657 3.24393C58.4669 3.24393 59.8488 4.2342 60.0989 5.82102H62.6958C62.5409 2.92179 59.9917 0.881592 56.5014 0.881592C52.7491 0.881592 50.2475 2.92179 50.2475 5.98805C50.2475 8.51742 51.665 10.0207 54.7741 10.7485L56.9898 11.2854C59.2651 11.8223 60.2657 12.6097 60.2657 13.9221C60.2657 15.4493 58.6933 16.5589 56.5491 16.5589C54.25 16.5589 52.6538 15.5209 52.4274 13.8864H49.7829Z" fill="#282224"/>
<path d="M24.1857 5.77272C22.4847 5.77272 21.0136 6.62455 20.255 8.05193H20.0711V5.97993H17.6921V22.6826H20.1631V16.6162H20.3585C21.0136 17.94 22.4272 18.7228 24.2087 18.7228C27.3693 18.7228 29.3806 16.2249 29.3806 12.242C29.3806 8.25913 27.3693 5.77272 24.1857 5.77272ZM23.4846 16.5011C21.4158 16.5011 20.1171 14.8665 20.1171 12.2535C20.1171 9.62896 21.4158 7.99438 23.4961 7.99438C25.5878 7.99438 26.8406 9.59443 26.8406 12.242C26.8406 14.9011 25.5878 16.5011 23.4846 16.5011Z" fill="#282224"/>
<path d="M38.0271 5.77272C36.3261 5.77272 34.855 6.62455 34.0964 8.05193H33.9125V5.97993H31.5334V22.6826H34.0045V16.6162H34.1998C34.855 17.94 36.2686 18.7228 38.05 18.7228C41.2106 18.7228 43.2219 16.2249 43.2219 12.242C43.2219 8.25913 41.2106 5.77272 38.0271 5.77272ZM37.326 16.5011C35.2572 16.5011 33.9585 14.8665 33.9585 12.2535C33.9585 9.62896 35.2572 7.99438 37.3375 7.99438C39.4292 7.99438 40.682 9.59443 40.682 12.242C40.682 14.9011 39.4292 16.5011 37.326 16.5011Z" fill="#282224"/>
<path d="M13.2586 18.5156H16.0937L9.88745 1.29918H7.0166L0.810303 18.5156H3.55013L5.13446 13.946H11.6862L13.2586 18.5156ZM8.31503 4.42509H8.51754L11.0072 11.703H5.81346L8.31503 4.42509Z" fill="#282224"/>
</svg>
