<svg width="97" height="10" viewBox="0 0 97 10" fill="none" xmlns="http://www.w3.org/2000/svg">
<path d="M0.470215 1.31343V9.61873H3.46417C5.93519 9.61873 7.36608 8.0935 7.36608 5.44018C7.36608 2.82715 5.9237 1.31343 3.46417 1.31343H0.470215ZM1.75744 2.48757H3.32051C5.03873 2.48757 6.05587 3.58113 6.05587 5.45745C6.05587 7.36254 5.05597 8.44459 3.32051 8.44459H1.75744V2.48757Z" fill="#282224"/>
<path d="M11.7484 9.7396C13.5758 9.7396 14.6964 8.51366 14.6964 6.48194C14.6964 4.46173 13.5701 3.23004 11.7484 3.23004C9.921 3.23004 8.79468 4.46173 8.79468 6.48194C8.79468 8.51366 9.91526 9.7396 11.7484 9.7396ZM11.7484 8.64028C10.6738 8.64028 10.0704 7.85177 10.0704 6.48194C10.0704 5.12362 10.6738 4.32935 11.7484 4.32935C12.8173 4.32935 13.4264 5.12362 13.4264 6.48194C13.4264 7.84601 12.8173 8.64028 11.7484 8.64028Z" fill="#282224"/>
<path d="M24.2391 3.35091H23.0036L21.8888 8.13379H21.7911L20.5039 3.35091H19.3201L18.0328 8.13379H17.9409L16.8203 3.35091H15.5676L17.2915 9.61873H18.5615L19.8488 5.00276H19.9464L21.2394 9.61873H22.5209L24.2391 3.35091Z" fill="#282224"/>
<path d="M25.662 9.61873H26.8975V5.95243C26.8975 4.97398 27.4779 4.36389 28.3916 4.36389C29.3053 4.36389 29.742 4.86462 29.742 5.87185V9.61873H30.9775V5.56105C30.9775 4.07035 30.2075 3.23004 28.8111 3.23004C27.8686 3.23004 27.248 3.6502 26.9435 4.34662H26.8515V3.35091H25.662V9.61873Z" fill="#282224"/>
<path d="M32.9233 9.61873H34.1588V0.904785H32.9233V9.61873Z" fill="#282224"/>
<path d="M38.8055 9.7396C40.6329 9.7396 41.7535 8.51366 41.7535 6.48194C41.7535 4.46173 40.6272 3.23004 38.8055 3.23004C36.9781 3.23004 35.8518 4.46173 35.8518 6.48194C35.8518 8.51366 36.9723 9.7396 38.8055 9.7396ZM38.8055 8.64028C37.7309 8.64028 37.1275 7.85177 37.1275 6.48194C37.1275 5.12362 37.7309 4.32935 38.8055 4.32935C39.8744 4.32935 40.4835 5.12362 40.4835 6.48194C40.4835 7.84601 39.8744 8.64028 38.8055 8.64028Z" fill="#282224"/>
<path d="M45.4347 8.68057C44.7624 8.68057 44.2739 8.3525 44.2739 7.78846C44.2739 7.23592 44.6647 6.94239 45.5267 6.88483L47.0552 6.78699V7.31074C47.0552 8.08775 46.3657 8.68057 45.4347 8.68057ZM45.1187 9.72233C45.9404 9.72233 46.6243 9.36549 46.9978 8.73813H47.0955V9.61873H48.285V5.33658C48.285 4.0128 47.4 3.23004 45.8312 3.23004C44.4118 3.23004 43.4004 3.92071 43.274 4.997H44.4693C44.6072 4.55382 45.0842 4.30058 45.7738 4.30058C46.6185 4.30058 47.0552 4.67469 47.0552 5.33658V5.8776L45.36 5.97545C43.8717 6.06754 43.0327 6.71792 43.0327 7.84601C43.0327 8.99137 43.9119 9.72233 45.1187 9.72233Z" fill="#282224"/>
<path d="M52.4777 9.72233C53.3397 9.72233 54.0695 9.31369 54.443 8.62877H54.5407V9.61873H55.7245V0.904785H54.489V4.34662H54.3971C54.058 3.65595 53.3339 3.24731 52.4777 3.24731C50.8974 3.24731 49.8803 4.50202 49.8803 6.48194C49.8803 8.46762 50.8859 9.72233 52.4777 9.72233ZM52.8282 4.35813C53.8626 4.35813 54.512 5.18118 54.512 6.4877C54.512 7.79997 53.8684 8.6115 52.8282 8.6115C51.7824 8.6115 51.156 7.81148 51.156 6.48194C51.156 5.16391 51.7881 4.35813 52.8282 4.35813Z" fill="#282224"/>
<path d="M63.7364 9.7396C65.5638 9.7396 66.6843 8.51366 66.6843 6.48194C66.6843 4.46173 65.558 3.23004 63.7364 3.23004C61.909 3.23004 60.7826 4.46173 60.7826 6.48194C60.7826 8.51366 61.9032 9.7396 63.7364 9.7396ZM63.7364 8.64028C62.6618 8.64028 62.0584 7.85177 62.0584 6.48194C62.0584 5.12362 62.6618 4.32935 63.7364 4.32935C64.8052 4.32935 65.4144 5.12362 65.4144 6.48194C65.4144 7.84601 64.8052 8.64028 63.7364 8.64028Z" fill="#282224"/>
<path d="M68.3198 9.61873H69.5553V5.95243C69.5553 4.97398 70.1357 4.36389 71.0494 4.36389C71.9631 4.36389 72.3999 4.86462 72.3999 5.87185V9.61873H73.6354V5.56105C73.6354 4.07035 72.8653 3.23004 71.4689 3.23004C70.5265 3.23004 69.9059 3.6502 69.6013 4.34662H69.5093V3.35091H68.3198V9.61873Z" fill="#282224"/>
<path d="M79.3256 1.79114V3.37968H78.3315V4.42144H79.3256V7.96112C79.3256 9.1698 79.8715 9.65326 81.245 9.65326C81.4863 9.65326 81.7162 9.62449 81.9173 9.58995V8.5597C81.7449 8.57697 81.6357 8.58848 81.4461 8.58848C80.8312 8.58848 80.5611 8.3007 80.5611 7.64457V4.42144H81.9173V3.37968H80.5611V1.79114H79.3256Z" fill="#282224"/>
<path d="M83.5758 9.61873H84.8113V5.95818C84.8113 5.00851 85.3744 4.36964 86.3858 4.36964C87.2593 4.36964 87.7248 4.87613 87.7248 5.8776V9.61873H88.9603V5.57256C88.9603 4.08186 88.1385 3.23579 86.8053 3.23579C85.8629 3.23579 85.202 3.65595 84.8975 4.35813H84.7998V0.904785H83.5758V9.61873Z" fill="#282224"/>
<path d="M93.4173 4.28331C94.331 4.28331 94.9287 4.92218 94.9574 5.90638H91.7968C91.8657 4.92793 92.5036 4.28331 93.4173 4.28331ZM94.9516 7.92659C94.7218 8.41581 94.2103 8.68633 93.4633 8.68633C92.4749 8.68633 91.837 7.9899 91.7968 6.89059V6.82152H96.2159V6.38985C96.2159 4.42144 95.1643 3.23004 93.4231 3.23004C91.6589 3.23004 90.5383 4.50202 90.5383 6.50496C90.5383 8.5079 91.6359 9.7396 93.4288 9.7396C94.8597 9.7396 95.8596 9.04893 96.1412 7.92659H94.9516Z" fill="#282224"/>
</svg>
