<svg width="49" height="9" viewBox="0 0 49 9" fill="none" xmlns="http://www.w3.org/2000/svg">
<path d="M7.71166 4.73677C7.71166 5.78413 7.39937 6.61776 6.77352 7.24018C6.06329 7.98008 5.13648 8.35003 3.99811 8.35003C2.90759 8.35003 1.97952 7.97508 1.21767 7.22518C0.454554 6.47403 0.072998 5.54416 0.072998 4.43431C0.072998 3.32321 0.454554 2.39333 1.21767 1.64343C1.97952 0.892283 2.90759 0.517335 3.99811 0.517335C4.53959 0.517335 5.05715 0.62232 5.54826 0.831042C6.04063 1.04101 6.43478 1.31973 6.72944 1.66843L6.06581 2.32834C5.56589 1.73467 4.87707 1.43846 3.99685 1.43846C3.20099 1.43846 2.51344 1.71592 1.93292 2.27085C1.3524 2.82577 1.06278 3.54693 1.06278 4.43306C1.06278 5.31919 1.3524 6.04034 1.93292 6.59527C2.51344 7.15019 3.20099 7.42765 3.99685 7.42765C4.84055 7.42765 5.54448 7.14894 6.10737 6.59027C6.47255 6.22657 6.68411 5.72038 6.74077 5.07172H3.99685V4.17059H7.65752C7.69529 4.36682 7.71166 4.55554 7.71166 4.73677Z" fill="#282224"/>
<path d="M13.517 1.60476H10.0767V3.98194H13.1795V4.88307H10.0767V7.26025H13.517V8.18262H9.10579V0.683632H13.517V1.60476Z" fill="#282224"/>
<path d="M17.6107 8.18262H16.6398V1.60476H14.5293V0.683632H19.7212V1.60476H17.6107V8.18262Z" fill="#282224"/>
<path d="M23.4775 8.18262V0.683632H24.4484V8.18262H23.4775Z" fill="#282224"/>
<path d="M28.754 8.18262H27.7831V1.60476H25.6726V0.683632H30.8645V1.60476H28.754V8.18262Z" fill="#282224"/>
<path d="M40.6928 7.21399C39.9498 7.97139 39.0268 8.35009 37.9224 8.35009C36.818 8.35009 35.895 7.97139 35.1533 7.21399C34.4103 6.45659 34.0401 5.52922 34.0401 4.43312C34.0401 3.33701 34.4103 2.40964 35.1533 1.65224C35.895 0.894841 36.818 0.514893 37.9224 0.514893C39.0205 0.514893 39.9423 0.896091 40.6877 1.65724C41.4332 2.41839 41.806 3.34326 41.806 4.43312C41.806 5.52922 41.4345 6.45659 40.6928 7.21399ZM35.8698 6.58533C36.4289 7.14775 37.1127 7.42771 37.9224 7.42771C38.7321 7.42771 39.4171 7.1465 39.975 6.58533C40.5341 6.0229 40.8149 5.3055 40.8149 4.43312C40.8149 3.56073 40.5341 2.84333 39.975 2.28091C39.4171 1.71848 38.7321 1.43852 37.9224 1.43852C37.1127 1.43852 36.4289 1.71973 35.8698 2.28091C35.312 2.84333 35.0311 3.56073 35.0311 4.43312C35.0311 5.3055 35.312 6.0229 35.8698 6.58533Z" fill="#282224"/>
<path d="M43.1685 8.18262V0.683632H44.3497L48.0217 6.5166H48.0632L48.0217 5.07179V0.683632H48.9926V8.18262H47.9789L44.1369 2.06595H44.0953L44.1369 3.51075V8.18262H43.1685Z" fill="#282224"/>
</svg>
