<svg width="108" height="22" viewBox="0 0 108 22" fill="none" xmlns="http://www.w3.org/2000/svg">
<path d="M34.8009 6.11993C31.8391 6.11993 29.4251 8.35588 29.4251 11.4355C29.4251 14.4963 31.8391 16.751 34.8009 16.751C37.7639 16.751 40.1779 14.4963 40.1779 11.4355C40.1766 8.35588 37.7626 6.11993 34.8009 6.11993ZM34.8009 14.6588C33.1777 14.6588 31.7786 13.3302 31.7786 11.4367C31.7786 9.52322 33.1789 8.21465 34.8009 8.21465C36.4241 8.21465 37.8231 9.52322 37.8231 11.4367C37.8231 13.329 36.4241 14.6588 34.8009 14.6588ZM23.0721 6.11993C20.1103 6.11993 17.6964 8.35588 17.6964 11.4355C17.6964 14.4963 20.1103 16.751 23.0721 16.751C26.0352 16.751 28.4492 14.4963 28.4492 11.4355C28.4492 8.35588 26.0352 6.11993 23.0721 6.11993ZM23.0721 14.6588C21.4489 14.6588 20.0499 13.3302 20.0499 11.4367C20.0499 9.52322 21.4502 8.21465 23.0721 8.21465C24.6953 8.21465 26.0943 9.52322 26.0943 11.4367C26.0956 13.329 24.6953 14.6588 23.0721 14.6588ZM9.12205 7.75221V10.0069H14.5595C14.3971 11.2755 13.9715 12.2016 13.3217 12.8453C12.5309 13.6302 11.293 14.4963 9.12205 14.4963C5.77494 14.4963 3.1582 11.8179 3.1582 8.49586C3.1582 5.17381 5.77494 2.49542 9.12205 2.49542C10.9278 2.49542 12.2463 3.20032 13.2197 4.10645L14.8227 2.51542C13.4627 1.22684 11.6582 0.240724 9.12205 0.240724C4.53709 0.240724 0.682495 3.94522 0.682495 8.49586C0.682495 13.0465 4.53709 16.751 9.12205 16.751C11.5965 16.751 13.464 15.9449 14.9235 14.4351C16.4245 12.9453 16.8917 10.8505 16.8917 9.15952C16.8917 8.63709 16.8514 8.15341 16.7695 7.75096H9.12205V7.75221ZM66.1766 9.50323C65.7308 8.31589 64.3708 6.11993 61.5916 6.11993C58.8326 6.11993 56.5395 8.27464 56.5395 11.4355C56.5395 14.4151 58.8124 16.751 61.8548 16.751C64.3091 16.751 65.7295 15.2612 66.3189 14.3951L64.4929 13.1865C63.8847 14.0726 63.0524 14.6563 61.8548 14.6563C60.6585 14.6563 59.806 14.1126 59.2582 13.0452L66.4196 10.1056L66.1766 9.50323ZM58.8729 11.2755C58.8124 9.22076 60.4759 8.17466 61.6735 8.17466C62.6066 8.17466 63.3974 8.63834 63.6618 9.302L58.8729 11.2755ZM53.0513 16.4298H55.4036V0.805647H53.0513V16.4298ZM49.1955 7.30852H49.1149C48.5872 6.68361 47.5723 6.11993 46.2954 6.11993C43.6169 6.11993 41.1627 8.45587 41.1627 11.4567C41.1627 14.4363 43.6169 16.7523 46.2954 16.7523C47.5735 16.7523 48.5872 16.1886 49.1149 15.5449H49.1955V16.3098C49.1955 18.3433 48.0999 19.4306 46.3357 19.4306C44.8951 19.4306 44.0023 18.4045 43.6371 17.5384L41.5883 18.3845C42.1763 19.7931 43.7378 21.5254 46.3357 21.5254C49.0947 21.5254 51.4281 19.9143 51.4281 15.9874V6.44364H49.1967V7.30852H49.1955ZM46.4981 14.6588C44.8749 14.6588 43.5162 13.309 43.5162 11.4567C43.5162 9.58322 44.8749 8.21465 46.4981 8.21465C48.0999 8.21465 49.3579 9.58322 49.3579 11.4567C49.3579 13.309 48.0999 14.6588 46.4981 14.6588ZM77.2001 0.805647H71.57V16.4298H73.9185V10.5106H77.1989C79.803 10.5106 82.3643 8.63959 82.3643 5.65874C82.3643 2.67789 79.8043 0.805647 77.2001 0.805647ZM77.2606 8.33588H73.9185V2.98035H77.2606C79.0172 2.98035 80.0146 4.42391 80.0146 5.65874C80.0146 6.86858 79.0172 8.33588 77.2606 8.33588ZM91.7824 6.09244C90.0811 6.09244 88.3194 6.83609 87.5903 8.48462L89.6756 9.34825C90.1214 8.48461 90.9525 8.20215 91.8226 8.20215C93.0378 8.20215 94.2732 8.92581 94.2933 10.2119V10.3731C93.8677 10.1319 92.956 9.77069 91.8428 9.77069C89.595 9.77069 87.3057 10.9968 87.3057 13.2877C87.3057 15.3787 89.1492 16.7248 91.2144 16.7248C92.7935 16.7248 93.6649 16.0211 94.2115 15.1962H94.2921V16.4023H96.5612V10.4119C96.5625 7.63973 94.4747 6.09244 91.7824 6.09244ZM91.4978 14.655C90.7296 14.655 89.6555 14.2726 89.6555 13.3277C89.6555 12.1216 90.9928 11.6592 92.1475 11.6592C93.1789 11.6592 93.6662 11.8804 94.2933 12.1816C94.1107 13.6302 92.8552 14.655 91.4978 14.655ZM104.825 6.43364L102.131 13.2077H102.05L99.2548 6.43364H96.7237L100.916 15.9011L98.5257 21.1679H100.976L107.437 6.43364H104.825ZM83.6614 16.4298H86.0099V0.805647H83.6614V16.4298Z" fill="#282224"/>
</svg>
